# xmcd CD database file
#
# Track frame offsets:
#	150
#	20052
#	47055
#	65420
#	90756
#	112706
#	129795
#	156443
#	174783
#	193672
#	215343
#	235137
#	257878
#	276520
#	299721
#
# Disc length: 4269 seconds
#
# Revision: 0
# Processed by: cddbd v1.5.2PL0 Copyright (c) Steve Scherf et al.
# Submitted via: CDex 1.70beta2
#
DISCID=d210ab0f
DTITLE=Unheilig - MIX
DYEAR=2012
DGENRE=New Age
TTITLE0=YouTube        - Unheilig - unter deiner Flagge
TTITLE1=YouTube        - Unheilig   Auf Zum Mond
TTITLE2=YouTube        - Unheilig   Puppenspieler
TTITLE3=YouTube        - Unheilig   Spiegelbild
TTITLE4=YouTube        - Unheilig  Dein Clown
TTITLE5=You Tube       - Unheilig - Geboren um zu leben
TTITLE6=YouTube        - Unheilig  Himmelherz
TTITLE7=YouTube        - Unheilig - Winter
TTITLE8=YouTube        - Unheilig - Zauberer
TTITLE9=YouTube        - Unheilig- Fang mich auf
TTITLE10=YouTube        - Unheilig- Glaub an mich
TTITLE11=YouTube        - Unheilig- Lampenfieber
TTITLE12=YouTube        - Unheilig- Schleichfahrt
TTITLE13=YouTube        - Unheilig- Spielzeugmann
TTITLE14=YouTube        - Unheilig- Wie viele Jahre
EXTD=YEAR: 2012
EXTT0=
EXTT1=
EXTT2=
EXTT3=
EXTT4=
EXTT5=
EXTT6=
EXTT7=
EXTT8=
EXTT9=
EXTT10=
EXTT11=
EXTT12=
EXTT13=
EXTT14=
PLAYORDER=
